<svg version="1.0" xmlns="http://www.w3.org/2000/svg" viewBox="0 0 128.000000 128.000000" preserveAspectRatio="xMidYMid meet">

<g transform="translate(0.000000,128.000000) scale(0.100000,-0.100000)" fill="#000000" stroke="none">
<path d="M243 1086 c-19 -39 -26 -44 -63 -49 -65 -8 -70 -21 -28 -65 35 -35
36 -39 28 -82 -11 -61 0 -69 55 -42 l45 22 45 -22 c55 -27 66 -19 55 42 -8 43
-7 47 28 82 42 44 37 57 -28 65 -37 5 -44 10 -63 49 -12 25 -28 44 -37 44 -9
0 -25 -19 -37 -44z m59 -56 c12 -22 25 -30 44 -30 l27 0 -23 -25 c-18 -19 -21
-31 -16 -56 5 -27 4 -30 -12 -23 -9 4 -28 8 -42 8 -14 0 -33 -4 -42 -8 -16 -7
-17 -4 -12 23 5 25 2 37 -16 56 l-23 25 27 0 c19 0 32 8 44 30 9 16 19 30 22
30 3 0 13 -14 22 -30z"></path>
<path d="M505 989 c-4 -6 -3 -15 2 -20 5 -5 142 -8 329 -7 276 3 319 5 319 18
0 13 -44 15 -322 18 -226 1 -324 -1 -328 -9z"></path>
<path d="M243 746 c-19 -39 -26 -44 -63 -49 -65 -8 -70 -21 -28 -65 35 -35 36
-39 28 -82 -11 -61 0 -69 55 -42 l45 22 45 -22 c55 -27 66 -19 55 42 -8 43 -7
47 28 82 42 44 37 57 -28 65 -37 5 -44 10 -63 49 -12 25 -28 44 -37 44 -9 0
-25 -19 -37 -44z m59 -56 c12 -22 25 -30 44 -30 l27 0 -23 -25 c-18 -19 -21
-31 -16 -56 5 -27 4 -30 -12 -23 -22 10 -62 10 -84 0 -16 -7 -17 -4 -12 23 5
25 2 37 -16 56 l-23 25 27 0 c19 0 32 8 44 30 9 16 19 30 22 30 3 0 13 -14 22
-30z"></path>
<path d="M505 649 c-4 -6 -3 -15 2 -20 5 -5 142 -8 329 -7 276 3 319 5 319 18
0 13 -44 15 -322 18 -226 1 -324 -1 -328 -9z"></path>
<path d="M243 386 c-19 -39 -26 -44 -63 -49 -65 -8 -70 -21 -28 -65 35 -35 36
-39 28 -82 -11 -61 0 -69 55 -42 l45 22 45 -22 c55 -27 66 -19 55 42 -8 43 -7
47 28 82 42 44 37 57 -28 65 -37 5 -44 10 -63 49 -12 25 -28 44 -37 44 -9 0
-25 -19 -37 -44z m59 -56 c12 -22 25 -30 44 -30 l27 0 -23 -25 c-18 -19 -21
-31 -16 -56 5 -27 4 -30 -12 -23 -22 10 -62 10 -84 0 -16 -7 -17 -4 -12 23 5
25 2 37 -16 56 l-23 25 27 0 c19 0 32 8 44 30 9 16 19 30 22 30 3 0 13 -14 22
-30z"></path>
<path d="M505 289 c-4 -6 -3 -15 2 -20 5 -5 142 -8 329 -7 276 3 319 5 319 18
0 13 -44 15 -322 18 -226 1 -324 -1 -328 -9z"></path>
</g>
</svg>