<svg version="1.0" xmlns="http://www.w3.org/2000/svg" viewBox="0 0 128.000000 128.000000" preserveAspectRatio="xMidYMid meet">

<g transform="translate(0.000000,128.000000) scale(0.100000,-0.100000)" fill="#000000" stroke="none">
<path d="M568 1237 c-36 -29 -35 -39 3 -71 31 -26 49 -27 49 0 0 12 32 14 199
14 161 0 200 3 204 14 3 8 3 17 0 20 -4 3 -96 6 -205 6 -191 0 -198 1 -198 20
0 26 -18 25 -52 -3z"></path>
<path d="M135 1141 c-48 -22 -79 -54 -100 -103 -23 -56 -19 -99 18 -167 40
-77 135 -191 158 -191 23 0 136 141 167 208 46 102 12 198 -88 250 -53 27
-101 28 -155 3z m145 -44 c76 -40 100 -119 59 -200 -27 -53 -118 -169 -130
-165 -17 6 -100 114 -124 162 -38 76 -30 130 27 183 50 47 105 54 168 20z"></path>
<path d="M150 1068 c-19 -13 -40 -35 -47 -48 -40 -78 18 -170 107 -170 69 0
120 53 120 125 0 50 -51 104 -105 111 -31 5 -48 1 -75 -18z m123 -49 c40 -49
4 -129 -59 -129 -64 0 -107 74 -71 121 34 43 97 47 130 8z"></path>
<path d="M676 1134 c-9 -8 -16 -26 -16 -40 0 -23 -2 -24 -78 -24 -92 0 -97 -3
-136 -97 -21 -50 -26 -79 -26 -146 0 -85 8 -107 42 -107 9 0 28 -11 42 -25 32
-32 66 -32 96 0 23 24 28 25 146 25 118 0 124 -1 148 -25 32 -32 67 -32 100 1
l26 27 26 -27 c33 -33 68 -33 100 -1 15 15 36 25 54 25 57 0 60 13 60 219 0
132 -4 191 -12 199 -9 9 -86 12 -284 12 -234 0 -275 -2 -288 -16z m544 -199
l0 -175 -25 0 c-13 0 -35 11 -49 25 -33 33 -70 32 -101 -1 l-25 -27 -25 27
c-31 33 -68 34 -101 1 -23 -23 -33 -25 -109 -25 l-85 0 0 175 0 175 260 0 260
0 0 -175z m-560 -40 c0 -124 -1 -135 -18 -135 -10 0 -29 11 -42 25 -14 15 -35
25 -51 25 -17 0 -35 -9 -47 -25 -33 -42 -42 -31 -42 48 0 56 6 86 26 135 l27
62 74 0 73 0 0 -135z m-82 -153 c4 -28 -24 -40 -45 -19 -21 21 -9 49 19 45 15
-2 24 -11 26 -26z m390 0 c4 -28 -24 -40 -45 -19 -14 13 -14 19 -3 32 18 22
44 15 48 -13z m152 13 c10 -12 10 -18 0 -30 -25 -30 -61 -7 -46 30 3 8 12 15
19 15 8 0 20 -7 27 -15z"></path>
<path d="M837 1083 c-4 -3 -7 -60 -7 -125 0 -108 2 -119 18 -116 15 3 17 18
20 114 2 85 -1 114 -11 122 -8 7 -17 9 -20 5z"></path>
<path d="M1141 1076 c-8 -9 -11 -51 -9 -122 3 -94 5 -109 21 -112 15 -3 17 8
17 117 0 118 -7 144 -29 117z"></path>
<path d="M750 959 c0 -109 2 -120 18 -117 15 3 17 18 20 121 3 112 2 117 -18
117 -19 0 -20 -6 -20 -121z"></path>
<path d="M904 1067 c-2 -7 -3 -60 -2 -118 3 -90 5 -104 21 -107 15 -3 17 8 17
117 0 102 -2 121 -15 121 -9 0 -18 -6 -21 -13z"></path>
<path d="M980 960 c0 -113 1 -120 20 -120 19 0 20 7 20 120 0 113 -1 120 -20
120 -19 0 -20 -7 -20 -120z"></path>
<path d="M1060 960 c0 -110 2 -121 18 -118 15 3 17 17 17 118 0 101 -2 115
-17 118 -16 3 -18 -8 -18 -118z"></path>
<path d="M502 969 c-34 -80 -34 -80 61 -77 l82 3 0 60 0 60 -61 3 -61 3 -21
-52z m108 -14 c0 -22 -4 -25 -40 -25 -43 0 -45 2 -30 31 7 12 21 19 40 19 25
0 30 -4 30 -25z"></path>
<path d="M534 749 c-10 -17 13 -36 27 -22 12 12 4 33 -11 33 -5 0 -12 -5 -16
-11z"></path>
<path d="M932 746 c1 -10 8 -17 13 -17 15 1 12 24 -3 29 -9 3 -13 -2 -10 -12z"></path>
<path d="M1085 750 c-8 -13 4 -32 16 -25 12 8 12 35 0 35 -6 0 -13 -4 -16 -10z"></path>
<path d="M23 643 c-11 -28 14 -163 43 -233 74 -181 228 -318 419 -371 65 -18
245 -18 310 0 215 60 388 233 445 445 7 26 14 76 14 110 l1 61 -613 3 c-567 2
-613 1 -619 -15z m297 -42 c5 -11 10 -38 10 -60 0 -57 15 -90 65 -141 39 -40
47 -56 66 -133 24 -96 53 -150 85 -155 31 -5 65 41 81 109 10 46 28 82 68 136
90 123 86 185 -15 239 l-45 24 81 0 c64 0 85 -4 95 -17 21 -25 73 -43 123 -43
62 0 68 -15 70 -164 0 -67 5 -127 9 -133 5 -7 18 -13 30 -13 35 -1 -65 -89
-146 -128 -218 -108 -472 -70 -649 97 -104 97 -166 215 -184 349 l-7 52 126 0
c115 0 127 -2 137 -19z m280 -11 c30 -12 70 -33 89 -47 51 -40 41 -77 -58
-205 -17 -23 -33 -60 -40 -96 -6 -32 -18 -67 -26 -78 -14 -19 -14 -19 -29 1
-8 11 -23 54 -32 95 -21 93 -45 143 -84 171 -33 25 -46 59 -53 135 l-4 51 91
-3 c64 -2 108 -9 146 -24z m616 -17 c-10 -76 -45 -177 -80 -230 -24 -37 -38
-49 -61 -51 l-30 -3 -2 116 c0 63 -6 128 -13 144 -14 35 -47 51 -103 51 -23 0
-49 5 -57 10 -10 6 46 10 169 10 l183 0 -6 -47z"></path>
</g>
</svg>