<svg version="1.0" xmlns="http://www.w3.org/2000/svg" width="128.000000pt" height="128.000000pt" viewBox="0 0 128.000000 128.000000" preserveAspectRatio="xMidYMid meet">

<g transform="translate(0.000000,128.000000) scale(0.100000,-0.100000)" fill="#000000" stroke="none">
<path d="M787 1266 c-43 -16 -102 -59 -117 -85 -7 -14 -29 -21 -84 -30 -41 -6
-94 -17 -118 -25 -42 -15 -46 -14 -93 9 -55 28 -100 26 -148 -7 -55 -39 -74
-126 -42 -188 14 -28 14 -33 -9 -78 -13 -27 -30 -77 -36 -113 -18 -91 -17 -89
-48 -89 -50 0 -52 -8 -52 -235 0 -198 -1 -212 -20 -228 -14 -11 -20 -29 -20
-57 0 -48 18 -60 89 -60 41 0 53 -4 63 -21 16 -26 79 -59 113 -59 38 0 89 24
112 54 20 25 24 26 138 26 l116 0 25 -30 c53 -62 149 -64 209 -5 23 24 44 35
63 35 55 0 66 18 59 102 l-6 74 39 39 40 39 16 -22 c9 -13 26 -35 38 -49 l23
-26 66 88 c73 95 86 135 68 196 -11 36 -53 78 -93 92 -12 4 -18 23 -23 64 -9
79 -23 129 -50 183 -20 40 -21 48 -9 75 20 45 17 152 -5 200 -23 51 -98 118
-149 133 -51 15 -107 15 -155 -2z m170 -51 c70 -35 106 -88 111 -165 2 -33 -1
-73 -7 -90 -10 -31 -180 -258 -192 -259 -8 -1 -135 158 -173 216 -90 136 10
321 175 323 19 0 58 -11 86 -25z m-576 -134 c45 -46 41 -92 -17 -169 -25 -34
-50 -62 -54 -62 -4 0 -29 28 -54 62 -36 49 -46 70 -46 101 0 88 107 131 171
68z m244 -48 c0 -54 6 -88 17 -109 14 -25 186 -253 218 -287 4 -5 49 44 100
109 86 109 94 116 107 98 22 -30 43 -113 43 -170 0 -51 -1 -54 -35 -70 -75
-35 -104 -121 -66 -194 l22 -42 -28 -33 c-16 -19 -31 -34 -35 -34 -3 -1 -17
43 -29 97 -33 137 -40 142 -174 142 l-105 0 0 48 c0 26 -5 53 -12 60 -9 9 -77
12 -246 12 l-235 0 7 56 c6 56 42 154 56 154 3 0 21 -20 39 -45 18 -25 36 -45
40 -45 9 0 110 131 130 168 7 13 11 47 10 75 l-3 52 54 17 c30 9 71 17 90 17
l35 1 0 -77z m-375 -488 c0 -41 2 -75 5 -75 2 0 25 10 50 22 l45 22 45 -22
c25 -12 48 -22 50 -22 3 0 5 34 5 75 l0 75 85 0 85 0 0 -205 0 -205 -111 0
c-110 0 -110 0 -135 29 -52 62 -138 64 -203 5 -23 -20 -49 -34 -65 -34 l-26 0
0 205 0 205 85 0 85 0 0 -75z m160 30 l0 -46 -30 16 c-27 14 -33 14 -60 0
l-30 -16 0 46 0 45 60 0 60 0 0 -45z m778 -15 c37 -23 56 -63 48 -103 -3 -16
-26 -55 -52 -88 -37 -48 -49 -58 -60 -48 -25 21 -94 131 -94 151 0 50 55 107
105 108 11 0 35 -9 53 -20z m-320 -72 c27 -27 13 -38 -48 -38 -64 0 -80 -13
-80 -62 0 -44 15 -53 97 -58 l77 -5 13 -50 c17 -66 17 -65 -11 -65 -14 0 -30
10 -39 24 -19 28 -75 56 -114 56 -16 0 -45 -9 -66 -19 l-37 -19 0 117 c0 65 3
121 7 124 12 12 188 8 201 -5z m30 -101 c3 -16 -3 -18 -55 -15 -46 2 -58 7
-61 21 -3 16 3 18 55 15 46 -2 58 -7 61 -21z m-555 -177 c74 -82 -23 -206
-121 -156 -39 20 -52 44 -52 93 1 94 108 134 173 63z m473 21 c67 -41 63 -140
-7 -176 -114 -59 -207 108 -97 175 41 25 65 25 104 1z m-696 -86 c0 -22 -4
-25 -40 -25 -32 0 -40 4 -40 18 0 26 9 32 47 32 29 0 33 -3 33 -25z m500 0 l0
-25 -105 0 c-95 0 -105 2 -105 18 0 10 3 22 7 25 3 4 51 7 105 7 98 0 98 0 98
-25z m330 0 c0 -18 -5 -25 -20 -25 -15 0 -20 7 -20 25 0 18 5 25 20 25 15 0
20 -7 20 -25z"></path>
<path d="M814 1190 c-48 -15 -101 -80 -109 -133 -9 -57 19 -124 66 -157 49
-36 133 -39 179 -8 76 51 101 136 63 215 -31 65 -126 105 -199 83z m123 -56
c61 -38 68 -133 15 -187 -86 -85 -237 -1 -203 113 25 84 115 119 188 74z"></path>
<path d="M266 1051 c-25 -28 -17 -72 17 -91 24 -13 30 -13 55 0 53 30 33 110
-28 110 -15 0 -35 -9 -44 -19z m59 -41 c0 -22 -29 -18 -33 3 -3 14 1 18 15 15
10 -2 18 -10 18 -18z"></path>
<path d="M500 720 c0 -13 7 -20 20 -20 13 0 20 7 20 20 0 13 -7 20 -20 20 -13
0 -20 -7 -20 -20z"></path>
<path d="M580 720 c0 -13 7 -20 20 -20 13 0 20 7 20 20 0 13 -7 20 -20 20 -13
0 -20 -7 -20 -20z"></path>
<path d="M660 720 c0 -13 7 -20 20 -20 13 0 20 7 20 20 0 13 -7 20 -20 20 -13
0 -20 -7 -20 -20z"></path>
<path d="M1095 515 c-14 -13 -25 -31 -25 -40 0 -21 44 -65 65 -65 21 0 65 44
65 65 0 21 -44 65 -65 65 -9 0 -27 -11 -40 -25z m58 -32 c9 -9 -13 -34 -24
-27 -14 8 -11 34 4 34 8 0 17 -3 20 -7z"></path>
<path d="M240 197 c-37 -19 -41 -80 -6 -102 65 -43 131 46 70 94 -31 24 -31
25 -64 8z m50 -51 c0 -15 -24 -28 -34 -19 -13 14 -5 33 14 33 11 0 20 -6 20
-14z"></path>
<path d="M725 185 c-14 -13 -25 -31 -25 -40 0 -20 44 -65 63 -65 8 0 25 8 37
18 30 24 30 70 0 94 -30 24 -46 23 -75 -7z m55 -38 c0 -8 -3 -17 -7 -20 -9 -9
-34 13 -27 24 8 14 34 11 34 -4z"></path>
</g>
</svg>