<svg version="1.0" xmlns="http://www.w3.org/2000/svg" width="128.000000pt" height="128.000000pt" viewBox="0 0 128.000000 128.000000" preserveAspectRatio="xMidYMid meet">

<g transform="translate(0.000000,128.000000) scale(0.100000,-0.100000)" fill="#000000" stroke="none">
<path d="M872 1156 c-64 -27 -82 -43 -59 -52 9 -3 46 6 83 21 l66 27 102 -42
c122 -51 159 -69 168 -84 4 -6 8 -200 8 -432 0 -470 3 -449 -70 -456 -23 -2
-35 -8 -35 -18 0 -20 49 -25 87 -9 58 24 58 28 58 492 0 406 -1 425 -20 449
-24 31 -255 128 -302 128 -18 -1 -57 -11 -86 -24z"></path>
<path d="M704 1086 c-61 -27 -64 -40 -64 -253 l0 -193 -33 0 c-19 0 -36 2 -39
5 -2 3 0 27 6 55 7 35 7 73 -1 126 -13 94 -36 128 -85 132 -48 4 -78 -32 -78
-95 0 -24 -9 -61 -20 -82 -24 -48 -163 -161 -168 -137 -3 13 -22 16 -113 16
l-109 0 0 -280 0 -280 110 0 110 0 0 30 c0 37 14 38 78 6 47 -24 50 -24 417
-27 324 -4 370 -2 370 11 0 13 -26 15 -162 18 l-162 2 9 25 c6 16 6 34 0 51
-8 20 -6 31 10 51 21 27 27 78 10 88 -6 4 -3 16 10 32 21 27 26 68 11 92 -6 9
-2 20 10 32 27 27 25 80 -4 107 -18 17 -36 22 -80 22 l-57 0 0 188 c0 103 4
192 8 198 4 6 22 19 40 28 18 10 32 22 30 28 -6 18 -20 18 -54 4z m-184 -191
c17 -34 21 -186 6 -247 l-8 -38 122 0 c131 0 160 -8 160 -43 0 -35 -19 -47
-78 -47 -46 0 -53 -3 -50 -17 2 -14 16 -19 53 -23 50 -5 50 -5 50 -40 0 -35 0
-35 -50 -40 -37 -4 -51 -9 -53 -22 -3 -14 4 -18 30 -18 40 0 58 -15 58 -47 0
-27 -27 -43 -74 -43 -25 0 -36 -4 -36 -15 0 -9 9 -15 24 -15 13 0 34 -8 47
-19 21 -16 22 -22 11 -45 l-12 -26 -188 0 c-144 0 -192 3 -207 14 -11 8 -39
19 -62 26 l-42 13 -3 116 c-2 95 -6 116 -18 116 -13 0 -15 -25 -18 -152 l-3
-153 -69 0 -70 0 0 250 0 250 70 0 69 0 3 -72 c2 -57 6 -73 18 -73 10 0 16 13
18 42 3 38 9 48 60 90 142 120 172 164 172 254 0 63 43 78 70 24z"></path>
<path d="M912 1044 c-16 -11 -22 -25 -22 -54 0 -29 6 -43 22 -54 34 -24 73
-20 97 10 27 35 26 59 -4 89 -28 29 -61 32 -93 9z m73 -54 c0 -20 -6 -26 -26
-28 -17 -2 -29 3 -32 12 -11 28 4 47 32 44 20 -2 26 -8 26 -28z"></path>
<path d="M943 663 c-7 -3 -13 -15 -13 -28 0 -16 -9 -28 -27 -37 -32 -16 -49
-70 -34 -110 7 -20 24 -31 68 -45 48 -16 59 -24 61 -45 2 -13 -4 -30 -12 -37
-23 -19 -69 -10 -81 17 -12 27 -35 29 -35 3 0 -32 12 -52 36 -61 15 -6 24 -19
26 -37 4 -37 32 -37 36 0 2 15 8 27 13 27 21 0 59 50 59 77 0 42 -25 71 -73
84 -52 14 -67 25 -67 53 0 31 19 46 57 46 27 0 35 -5 43 -25 11 -28 28 -33 36
-11 8 21 -14 56 -42 66 -16 7 -24 17 -24 34 0 27 -8 36 -27 29z"></path>
</g>
</svg>