<svg version="1.0" xmlns="http://www.w3.org/2000/svg"  viewBox="0 0 128.000000 128.000000" preserveAspectRatio="xMidYMid meet">

<g transform="translate(0.000000,128.000000) scale(0.100000,-0.100000)" fill="#000000" stroke="none">
<path d="M467 1229 l-26 -33 -18 23 c-18 22 -21 22 -82 10 -57 -11 -62 -14
-58 -35 3 -19 -1 -23 -29 -29 -34 -6 -74 -46 -74 -74 0 -8 26 -41 57 -73 l57
-58 -102 -103 c-120 -123 -159 -193 -169 -305 -11 -128 31 -238 128 -337 32
-33 75 -79 95 -103 21 -24 56 -53 78 -65 40 -22 51 -22 489 -25 l447 -3 0 401
c0 393 0 400 -20 400 -12 0 -20 -7 -20 -16 0 -31 -54 -115 -94 -147 -79 -63
-134 -89 -222 -106 l-41 -8 -13 56 c-21 93 -56 150 -163 259 l-101 102 57 58
c31 32 57 65 57 73 0 29 -40 68 -76 75 -33 6 -34 8 -28 39 5 30 3 33 -24 38
-16 3 -41 9 -55 12 -20 5 -29 0 -50 -26z m83 -31 c0 -5 -14 -56 -32 -113 l-32
-105 -46 0 -46 0 -32 98 c-18 54 -32 101 -32 104 0 3 14 8 31 10 26 4 34 0 52
-28 12 -19 24 -34 27 -33 3 0 19 19 37 44 25 33 37 42 53 38 11 -3 20 -10 20
-15z m-230 -123 c32 -94 32 -95 18 -95 -8 0 -38 25 -68 55 -53 54 -54 55 -35
75 12 13 28 20 44 18 19 -2 28 -13 41 -53z m325 35 c18 -20 18 -22 -35 -75
-48 -49 -80 -68 -80 -48 0 4 10 37 22 75 20 61 25 68 48 68 15 0 35 -9 45 -20z
m9 -270 c100 -103 146 -179 160 -262 l7 -37 -228 -3 c-211 -3 -231 -5 -268
-25 -82 -44 -133 -119 -142 -210 l-6 -54 -24 23 c-13 12 -38 52 -56 87 -29 59
-32 74 -32 156 0 128 31 191 161 325 l97 100 117 0 117 0 97 -100z m566 -465
l0 -315 -40 0 -40 0 0 277 0 277 37 38 c20 21 38 38 40 38 2 0 3 -142 3 -315z
m-120 -55 l0 -260 -40 0 -40 0 0 243 0 243 33 17 c17 8 35 16 40 16 4 1 7
-116 7 -259z m-120 -25 l0 -235 -40 0 -40 0 0 224 0 224 38 10 c20 5 38 10 40
11 1 1 2 -105 2 -234z m-439 177 c168 -87 151 -330 -27 -398 -143 -54 -302 65
-292 218 6 80 47 143 117 180 71 37 131 37 202 0z m199 -192 l0 -220 -81 0
-81 0 31 26 c17 14 44 47 59 73 23 39 27 57 27 121 0 64 -4 82 -27 121 -15 26
-42 59 -59 73 l-31 26 81 0 81 0 0 -220z m120 0 l0 -220 -40 0 -40 0 0 220 0
220 40 0 40 0 0 -220z"></path>
<path d="M551 846 c-8 -10 -8 -16 3 -25 10 -9 16 -8 26 3 12 15 6 36 -9 36 -5
0 -14 -6 -20 -14z"></path>
<path d="M611 796 c-14 -17 -7 -36 14 -36 22 0 29 20 13 36 -13 13 -16 13 -27
0z"></path>
<path d="M163 708 c-44 -65 -54 -96 -60 -175 -6 -70 -5 -73 16 -73 19 0 21 6
21 50 0 60 23 134 57 178 23 31 25 62 4 62 -6 0 -23 -19 -38 -42z"></path>
<path d="M663 734 c-9 -23 13 -40 32 -24 12 10 13 16 4 26 -15 18 -28 18 -36
-2z"></path>
<path d="M711 671 c-18 -11 -5 -31 20 -31 21 0 22 1 13 24 -7 18 -13 19 -33 7z"></path>
<path d="M120 411 c0 -28 13 -40 31 -31 22 13 14 40 -12 40 -10 0 -19 -4 -19
-9z"></path>
<path d="M420 400 c0 -11 -4 -20 -10 -20 -17 0 -50 -39 -50 -58 0 -33 26 -55
71 -61 57 -8 61 -35 7 -39 -22 -2 -38 1 -38 7 0 6 -9 11 -20 11 -16 0 -20 -7
-20 -30 0 -27 3 -30 30 -30 23 0 30 -4 30 -20 0 -13 7 -20 20 -20 13 0 20 7
20 20 0 11 5 20 10 20 17 0 50 39 50 58 0 33 -26 55 -71 61 -57 8 -61 35 -6
39 21 2 37 -1 37 -7 0 -6 9 -11 20 -11 16 0 20 7 20 30 0 27 -3 30 -30 30 -23
0 -30 4 -30 20 0 13 -7 20 -20 20 -13 0 -20 -7 -20 -20z"></path>
<path d="M1072 1177 c-33 -33 -39 -46 -30 -55 9 -9 17 -7 35 10 l23 21 0 -116
c0 -110 1 -117 20 -117 19 0 20 7 20 117 l0 116 23 -21 c18 -17 26 -19 35 -10
9 9 3 22 -30 55 -23 24 -45 43 -48 43 -3 0 -25 -19 -48 -43z"></path>
<path d="M892 1037 c-33 -33 -39 -46 -30 -55 9 -9 17 -7 35 10 l23 21 0 -116
c0 -110 1 -117 20 -117 19 0 20 7 20 117 l0 116 23 -21 c18 -17 26 -19 35 -10
9 9 3 22 -30 55 -23 24 -45 43 -48 43 -3 0 -25 -19 -48 -43z"></path>
</g>
</svg>