<svg version="1.0" xmlns="http://www.w3.org/2000/svg"  viewBox="0 0 128.000000 128.000000" preserveAspectRatio="xMidYMid meet">

<g transform="translate(0.000000,128.000000) scale(0.100000,-0.100000)" fill="#000000" stroke="none">
<path d="M456 1231 c-41 -41 -59 -51 -119 -67 l-71 -19 -21 -72 c-17 -60 -29
-81 -68 -121 l-48 -49 17 -66 c13 -53 14 -76 6 -109 -12 -45 -9 -58 13 -58 7
0 18 21 25 51 10 43 10 59 -5 111 l-17 61 46 46 c37 37 50 61 64 111 l17 63
64 18 c50 14 75 29 110 63 l46 45 63 -16 c56 -14 68 -14 125 0 l62 16 46 -45
c35 -35 59 -48 110 -62 l64 -17 17 -64 c14 -51 27 -74 64 -112 l46 -46 -18
-62 c-16 -59 -16 -66 0 -123 l17 -61 -46 -47 c-36 -36 -49 -60 -63 -110 l-17
-64 -65 -19 c-50 -14 -76 -29 -111 -64 l-46 -45 -60 17 c-55 15 -64 15 -123 0
l-63 -16 -44 43 c-33 32 -60 48 -111 63 l-67 21 -17 63 c-23 87 -90 157 -114
120 -3 -6 10 -27 29 -47 24 -26 41 -57 54 -102 18 -63 20 -65 63 -79 25 -8 46
-15 48 -16 2 -2 -14 -68 -35 -148 -21 -80 -35 -149 -31 -152 3 -4 36 3 73 14
l67 20 48 -52 c35 -38 51 -49 60 -41 6 6 27 72 47 147 48 184 58 184 106 0 20
-75 41 -141 47 -147 9 -8 25 3 60 41 l48 52 62 -19 c35 -11 67 -17 73 -13 17
11 -18 143 -38 143 -17 0 -20 -36 -5 -74 5 -14 8 -26 7 -26 -2 0 -28 7 -57 16
l-54 16 -38 -40 c-21 -23 -39 -38 -42 -34 -3 6 -56 199 -56 207 0 1 18 -3 40
-8 40 -11 41 -11 90 38 34 34 51 44 54 34 2 -8 9 -27 14 -44 5 -16 17 -32 27
-34 19 -3 19 -5 -2 85 -4 17 3 22 44 35 47 15 48 16 68 82 16 52 30 77 69 116
l49 49 -18 71 c-16 67 -16 76 -1 138 l17 66 -50 51 c-41 43 -52 62 -68 121
l-18 70 -70 18 c-59 16 -78 27 -121 68 l-51 50 -66 -17 c-64 -17 -70 -17 -131
-1 -35 9 -66 17 -68 17 -2 0 -25 -22 -52 -49z m84 -966 c38 6 42 5 37 -10 -4
-9 -16 -53 -28 -98 -11 -45 -23 -85 -25 -89 -2 -4 -22 12 -43 34 l-38 41 -48
-16 c-27 -10 -52 -17 -55 -17 -6 0 36 169 56 229 3 10 19 0 53 -33 47 -46 50
-48 91 -41z"></path>
<path d="M515 1140 c-114 -37 -213 -138 -250 -255 -27 -88 -18 -204 23 -288
38 -77 111 -148 190 -185 50 -24 69 -27 162 -27 99 0 110 2 172 33 234 115
291 419 115 619 -28 32 -67 45 -67 23 0 -6 16 -28 36 -48 163 -167 110 -460
-101 -562 -122 -59 -276 -41 -380 45 l-30 24 67 1 c59 0 67 2 70 20 3 19 5 19
32 5 21 -11 62 -15 157 -15 125 0 129 1 145 25 9 13 13 33 9 44 -3 10 -2 22 3
25 5 3 13 38 16 77 4 39 12 82 18 95 9 18 7 29 -6 49 -15 23 -23 25 -86 25
l-70 0 1 59 c1 78 -16 129 -46 137 -40 10 -62 -10 -68 -62 -4 -37 -13 -54 -45
-86 l-40 -40 -113 1 c-62 1 -115 4 -118 6 -10 11 36 91 76 132 88 90 244 128
364 89 52 -17 72 -15 63 8 -8 20 -111 46 -180 45 -32 0 -86 -9 -119 -19z m189
-161 c5 -29 5 -59 -3 -88 -15 -57 -9 -61 92 -61 60 0 77 -3 77 -14 0 -10 -13
-16 -37 -18 -51 -4 -59 -35 -11 -40 45 -4 45 -32 1 -36 -25 -2 -33 -8 -33 -23
0 -14 7 -19 25 -19 18 0 25 -5 25 -19 0 -15 -8 -21 -32 -23 -42 -4 -48 -26 -9
-34 33 -7 41 -28 15 -38 -9 -3 -57 -6 -109 -6 -71 0 -103 5 -139 20 l-46 21 0
109 0 109 56 42 c60 46 84 82 84 127 0 60 31 54 44 -9z m-224 -279 l0 -150
-59 0 c-54 0 -62 3 -79 28 -35 50 -53 113 -53 183 0 38 2 73 6 79 3 5 46 10
96 10 l89 0 0 -150z"></path>
</g>
</svg>