<svg version="1.0" xmlns="http://www.w3.org/2000/svg"  viewBox="0 0 128.000000 128.000000" preserveAspectRatio="xMidYMid meet">

<g transform="translate(0.000000,128.000000) scale(0.100000,-0.100000)" fill="#000000" stroke="none">
<path d="M627 1266 c-8 -8 -20 -35 -27 -60 -11 -41 -16 -46 -49 -51 -78 -13
-90 -17 -101 -31 -24 -28 -3 -61 51 -79 40 -14 49 -21 44 -34 -36 -87 -39
-100 -26 -115 20 -24 43 -19 94 20 l47 37 47 -37 c51 -39 74 -44 94 -20 13 15
10 28 -26 115 -5 13 4 20 44 34 39 12 53 23 57 41 8 32 -10 52 -55 59 -91 15
-88 14 -101 61 -15 52 -33 74 -60 74 -10 0 -25 -6 -33 -14z m58 -83 c19 -57
21 -58 65 -66 101 -19 100 -18 40 -38 -30 -11 -58 -23 -64 -29 -5 -5 -1 -28
13 -60 12 -29 21 -54 19 -55 -2 -2 -23 12 -47 31 -24 18 -47 34 -51 34 -4 0
-31 -18 -59 -41 l-51 -41 26 62 c17 38 24 64 18 70 -6 6 -34 18 -64 29 -60 20
-61 19 40 38 44 8 46 9 65 66 11 31 22 57 25 57 3 0 14 -26 25 -57z"></path>
<path d="M290 1085 c-7 -8 -16 -30 -19 -48 -6 -30 -9 -32 -56 -35 -58 -4 -75
-15 -75 -49 0 -19 9 -28 45 -44 25 -11 45 -22 45 -25 0 -3 -9 -23 -20 -45 -16
-30 -18 -44 -10 -59 15 -28 37 -25 77 10 18 16 38 30 43 30 5 0 25 -13 43 -30
40 -35 62 -38 77 -10 8 15 6 29 -10 59 -11 22 -20 42 -20 45 0 3 20 14 45 25
35 15 45 25 45 43 0 36 -19 48 -76 48 -51 0 -51 0 -57 36 -10 60 -48 84 -77
49z m40 -61 c0 -51 16 -64 78 -65 l57 0 -52 -24 c-29 -13 -53 -27 -53 -30 0
-3 9 -23 20 -45 29 -56 25 -59 -20 -15 l-40 39 -40 -39 c-45 -44 -49 -41 -20
16 12 22 18 44 15 49 -3 4 -27 17 -53 27 l-47 18 60 5 60 5 9 43 c11 46 26 56
26 16z"></path>
<path d="M970 1085 c-7 -8 -16 -30 -19 -48 -6 -30 -9 -32 -56 -35 -58 -4 -75
-15 -75 -49 0 -19 9 -28 45 -44 25 -11 45 -22 45 -25 0 -3 -9 -23 -20 -45 -16
-30 -18 -44 -10 -59 15 -28 37 -25 77 10 18 16 38 30 43 30 5 0 25 -13 43 -30
40 -35 62 -38 77 -10 8 15 6 29 -10 59 -11 22 -20 42 -20 45 0 3 20 14 45 25
35 15 45 25 45 43 0 36 -19 48 -76 48 -51 0 -51 0 -57 36 -10 60 -48 84 -77
49z m40 -61 c0 -51 16 -64 78 -65 l57 0 -52 -24 c-29 -13 -53 -27 -53 -30 0
-3 9 -23 20 -45 29 -56 25 -59 -20 -15 l-40 39 -40 -39 c-45 -44 -49 -41 -20
16 12 22 18 44 15 49 -3 4 -27 17 -53 27 l-47 18 60 5 60 5 9 43 c11 46 26 56
26 16z"></path>
<path d="M597 860 c-17 -14 -35 -49 -56 -111 -17 -50 -42 -107 -56 -125 -23
-29 -116 -94 -137 -94 -4 0 -8 15 -10 33 l-3 32 -115 0 -115 0 0 -295 0 -295
113 -3 c107 -3 114 -1 119 18 5 19 12 20 260 20 l254 0 26 26 c21 22 25 32 20
66 -4 28 -1 49 10 65 10 16 14 35 10 59 -4 24 -1 44 10 60 10 17 14 36 10 62
-4 24 -1 43 8 56 23 30 18 74 -10 101 -22 23 -31 25 -129 25 l-105 0 19 43
c35 75 21 231 -23 262 -30 21 -70 19 -100 -5z m83 -35 c15 -18 25 -121 16
-168 -4 -19 -18 -51 -31 -71 -43 -64 -41 -65 106 -68 113 -3 133 -6 143 -20
21 -34 -4 -53 -73 -56 -52 -3 -61 -6 -61 -22 0 -16 9 -19 51 -22 59 -3 82 -25
63 -55 -8 -13 -27 -19 -63 -21 -42 -3 -51 -6 -51 -22 0 -15 9 -19 41 -22 49
-3 71 -27 53 -55 -7 -12 -26 -19 -53 -21 -32 -3 -41 -7 -41 -22 0 -14 8 -20
31 -22 39 -4 59 -30 43 -55 -10 -16 -36 -18 -263 -21 l-251 -2 0 202 0 203 47
19 c27 11 73 45 104 75 49 49 60 67 84 141 15 47 34 93 43 103 18 21 45 22 62
2z m-380 -525 l0 -260 -80 0 -80 0 0 260 0 260 80 0 80 0 0 -260z"></path>
</g>
</svg>