<svg version="1.0" xmlns="http://www.w3.org/2000/svg" width="128.000000pt" height="128.000000pt" viewBox="0 0 128.000000 128.000000" preserveAspectRatio="xMidYMid meet">

<g transform="translate(0.000000,128.000000) scale(0.100000,-0.100000)" fill="#000000" stroke="none">
<path d="M322 1257 c-21 -22 -22 -31 -22 -214 l0 -192 -57 -16 c-83 -24 -103
-46 -103 -111 0 -49 -2 -55 -30 -69 -36 -19 -50 -50 -50 -108 0 -64 9 -85 46
-108 34 -20 34 -22 34 -92 0 -69 -1 -73 -30 -89 -17 -9 -35 -30 -41 -45 -15
-40 -6 -128 15 -152 22 -24 91 -48 165 -57 48 -6 53 -5 49 11 -2 14 -19 22
-69 31 -95 17 -129 37 -129 74 l0 29 34 -14 c86 -36 305 -37 390 -1 l37 15 -3
-32 c-4 -40 -48 -64 -137 -73 -63 -7 -81 -18 -63 -36 15 -15 142 6 193 32 24
13 41 30 45 45 l6 25 279 0 278 0 28 24 c26 23 28 29 31 130 5 117 -1 156 -23
156 -12 0 -15 -21 -15 -123 0 -82 -4 -127 -12 -135 -9 -9 -87 -12 -290 -12
l-278 0 0 38 c0 31 5 40 31 55 17 9 43 17 59 17 60 0 70 74 13 99 -41 18 -41
32 0 51 25 12 33 22 35 47 4 41 -23 57 -89 51 -48 -5 -49 -4 -49 22 0 26 1 27
53 22 60 -5 87 12 87 52 0 26 -29 56 -53 56 -13 0 -17 9 -17 35 0 27 4 35 18
35 44 0 67 63 35 96 -14 13 -29 15 -78 11 -33 -3 -80 -2 -104 4 -23 5 -79 11
-124 12 l-82 2 -3 179 c-2 120 1 183 9 192 7 9 41 14 102 16 74 2 92 6 92 18
0 12 -19 16 -95 18 -90 2 -97 1 -118 -21z m254 -464 c95 -36 57 -73 -95 -95
-90 -12 -212 1 -270 30 -42 21 -43 32 -4 54 68 40 274 46 369 11z m129 -3 c11
-18 -26 -23 -43 -6 -15 15 -14 16 10 16 15 0 30 -5 33 -10z m-450 -117 c68
-19 285 -13 338 10 l37 16 0 -28 c0 -37 -14 -47 -90 -67 -47 -12 -91 -15 -164
-11 -151 7 -206 30 -206 84 0 20 3 24 18 18 9 -4 40 -14 67 -22z m-12 -104
c22 -6 76 -14 121 -18 l81 -8 -106 -2 c-106 -1 -184 14 -223 42 -17 12 -17 15
-2 30 15 15 19 14 53 -8 19 -14 54 -30 76 -36z m460 36 c1 -5 -16 -11 -37 -13
-36 -3 -38 -2 -26 13 14 17 59 17 63 0z m-513 -91 c95 -25 269 -15 353 21 14
6 17 2 17 -24 0 -41 -35 -59 -146 -73 -65 -9 -105 -9 -166 0 -98 14 -142 37
-146 76 -3 24 -1 28 15 22 10 -4 43 -14 73 -22z m515 -54 c3 -6 -1 -13 -9 -16
-21 -8 -66 3 -66 16 0 13 67 13 75 0z m-94 -39 c21 -18 22 -21 9 -35 -61 -61
-373 -59 -434 4 l-21 21 50 -8 c86 -14 224 -7 285 15 72 25 83 26 111 3z
m-380 -96 c93 -33 286 -28 382 10 14 6 17 2 17 -22 0 -24 -7 -33 -36 -47 -55
-26 -176 -38 -268 -26 -102 13 -150 36 -154 73 -4 31 0 32 59 12z m467 -12
c-5 -25 -28 -28 -28 -4 0 12 6 21 16 21 9 0 14 -7 12 -17z m-448 -98 c42 -13
84 -15 183 -12 138 4 157 -4 74 -35 -104 -39 -303 -32 -378 14 l-33 20 24 20
c26 21 37 21 130 -7z"></path>
<path d="M595 1270 c-16 -27 16 -30 284 -30 202 0 280 -3 289 -12 9 -9 12
-108 12 -385 0 -312 2 -373 14 -373 8 0 17 7 20 16 11 28 7 711 -4 740 -20 53
-23 53 -327 54 -177 0 -284 -4 -288 -10z"></path>
<path d="M412 1138 c-16 -16 -16 -190 0 -206 17 -17 669 -17 686 0 16 16 16
190 0 206 -17 17 -669 17 -686 0z m658 -103 l0 -75 -315 0 -315 0 0 75 0 75
315 0 315 0 0 -75z"></path>
<path d="M220 1015 c0 -8 7 -15 15 -15 8 0 15 7 15 15 0 8 -7 15 -15 15 -8 0
-15 -7 -15 -15z"></path>
<path d="M155 961 c-12 -20 6 -31 51 -31 38 0 45 3 42 18 -2 12 -15 18 -45 20
-22 2 -44 -2 -48 -7z"></path>
<path d="M154 899 c-11 -18 12 -31 52 -27 27 2 40 8 42 21 3 14 -4 17 -42 17
-25 0 -48 -5 -52 -11z"></path>
<path d="M786 824 c-40 -40 -5 -94 61 -94 63 0 96 55 57 94 -21 21 -97 21
-118 0z m99 -39 c0 -5 -17 -11 -37 -13 -30 -3 -38 0 -38 13 0 13 8 16 38 13
20 -2 37 -7 37 -13z"></path>
<path d="M966 824 c-40 -40 -5 -94 61 -94 63 0 96 55 57 94 -21 21 -97 21
-118 0z m99 -39 c0 -5 -17 -11 -37 -13 -30 -3 -38 0 -38 13 0 13 8 16 38 13
20 -2 37 -7 37 -13z"></path>
<path d="M787 642 c-40 -44 -10 -92 58 -92 49 0 75 19 75 54 0 13 -8 30 -18
39 -26 23 -94 22 -115 -1z m98 -37 c0 -5 -17 -11 -37 -13 -30 -3 -38 0 -38 13
0 13 8 16 38 13 20 -2 37 -7 37 -13z"></path>
<path d="M967 642 c-40 -44 -10 -92 58 -92 49 0 75 19 75 54 0 13 -8 30 -18
39 -26 23 -94 22 -115 -1z m98 -37 c0 -5 -17 -11 -37 -13 -30 -3 -38 0 -38 13
0 13 8 16 38 13 20 -2 37 -7 37 -13z"></path>
<path d="M786 494 c-9 -8 -16 -26 -16 -39 0 -48 80 -73 128 -39 28 20 30 69 3
84 -30 15 -97 12 -115 -6z m99 -39 c0 -5 -17 -11 -37 -13 -30 -3 -38 0 -38 13
0 13 8 16 38 13 20 -2 37 -7 37 -13z"></path>
<path d="M966 494 c-9 -8 -16 -26 -16 -39 0 -48 80 -73 128 -39 28 20 30 69 3
84 -30 15 -97 12 -115 -6z m99 -39 c0 -5 -17 -11 -37 -13 -30 -3 -38 0 -38 13
0 13 8 16 38 13 20 -2 37 -7 37 -13z"></path>
<path d="M800 358 c-28 -15 -39 -60 -19 -84 14 -17 110 -19 127 -2 16 16 15
63 -2 77 -22 19 -78 23 -106 9z m78 -45 c-2 -12 -13 -18 -33 -18 -20 0 -31 6
-33 18 -3 14 4 17 33 17 29 0 36 -3 33 -17z"></path>
<path d="M980 358 c-28 -15 -39 -60 -19 -84 14 -17 110 -19 127 -2 16 16 15
63 -2 77 -22 19 -78 23 -106 9z m78 -45 c-2 -12 -13 -18 -33 -18 -20 0 -31 6
-33 18 -3 14 4 17 33 17 29 0 36 -3 33 -17z"></path>
</g>
</svg>