<svg  style="position: absolute; width: 0; height: 0; overflow: hidden;" version="1.1" xmlns="http://www.w3.org/2000/svg" xmlns:xlink="http://www.w3.org/1999/xlink">
<defs>
<symbol id="prices" viewBox="0 0 32 32">
<path d="M21.8 3.1c-1.6 0.675-2.050 1.075-1.475 1.3 0.225 0.075 1.15-0.15 2.075-0.525l1.65-0.675 2.55 1.050c3.050 1.275 3.975 1.725 4.2 2.1 0.1 0.15 0.2 5 0.2 10.8 0 11.75 0.075 11.225-1.75 11.4-0.575 0.050-0.875 0.2-0.875 0.45 0 0.5 1.225 0.625 2.175 0.225 1.45-0.6 1.45-0.7 1.45-12.3 0-10.15-0.025-10.625-0.5-11.225-0.6-0.775-6.375-3.2-7.55-3.2-0.45 0.025-1.425 0.275-2.15 0.6z"></path>
<path d="M17.6 4.85c-1.525 0.675-1.6 1-1.6 6.325v4.825h-0.825c-0.475 0-0.9-0.050-0.975-0.125-0.050-0.075 0-0.675 0.15-1.375 0.175-0.875 0.175-1.825-0.025-3.15-0.325-2.35-0.9-3.2-2.125-3.3-1.2-0.1-1.95 0.8-1.95 2.375 0 0.6-0.225 1.525-0.5 2.050-0.6 1.2-4.075 4.025-4.2 3.425-0.075-0.325-0.55-0.4-2.825-0.4h-2.725v14h5.5v-0.75c0-0.925 0.35-0.95 1.95-0.15 1.175 0.6 1.25 0.6 10.425 0.675 8.1 0.1 9.25 0.050 9.25-0.275s-0.65-0.375-4.050-0.45l-4.050-0.050 0.225-0.625c0.15-0.4 0.15-0.85 0-1.275-0.2-0.5-0.15-0.775 0.25-1.275 0.525-0.675 0.675-1.95 0.25-2.2-0.15-0.1-0.075-0.4 0.25-0.8 0.525-0.675 0.65-1.7 0.275-2.3-0.15-0.225-0.050-0.5 0.25-0.8 0.675-0.675 0.625-2-0.1-2.675-0.45-0.425-0.9-0.55-2-0.55h-1.425v-4.7c0-2.575 0.1-4.8 0.2-4.95s0.55-0.475 1-0.7c0.45-0.25 0.8-0.55 0.75-0.7-0.15-0.45-0.5-0.45-1.35-0.1zM13 9.625c0.425 0.85 0.525 4.65 0.15 6.175l-0.2 0.95h3.050c3.275 0 4 0.2 4 1.075s-0.475 1.175-1.95 1.175c-1.15 0-1.325 0.075-1.25 0.425 0.050 0.35 0.4 0.475 1.325 0.575 1.25 0.125 1.25 0.125 1.25 1s0 0.875-1.25 1c-0.925 0.1-1.275 0.225-1.325 0.55-0.075 0.35 0.1 0.45 0.75 0.45 1 0 1.45 0.375 1.45 1.175 0 0.675-0.675 1.075-1.85 1.075-0.625 0-0.9 0.1-0.9 0.375 0 0.225 0.225 0.375 0.6 0.375 0.325 0 0.85 0.2 1.175 0.475 0.525 0.4 0.55 0.55 0.275 1.125l-0.3 0.65h-4.7c-3.6 0-4.8-0.075-5.175-0.35-0.275-0.2-0.975-0.475-1.55-0.65l-1.050-0.325-0.075-2.9c-0.050-2.375-0.15-2.9-0.45-2.9-0.325 0-0.375 0.625-0.45 3.8l-0.075 3.825h-3.475v-12.5h3.475l0.075 1.8c0.050 1.425 0.15 1.825 0.45 1.825 0.25 0 0.4-0.325 0.45-1.050 0.075-0.95 0.225-1.2 1.5-2.25 3.55-3 4.3-4.1 4.3-6.35 0-1.575 1.075-1.95 1.75-0.6z"></path>
<path d="M22.8 5.9c-0.4 0.275-0.55 0.625-0.55 1.35s0.15 1.075 0.55 1.35c0.85 0.6 1.825 0.5 2.425-0.25 0.675-0.875 0.65-1.475-0.1-2.225-0.7-0.725-1.525-0.8-2.325-0.225zM24.625 7.25c0 0.5-0.15 0.65-0.65 0.7-0.425 0.050-0.725-0.075-0.8-0.3-0.275-0.7 0.1-1.175 0.8-1.1 0.5 0.050 0.65 0.2 0.65 0.7z"></path>
<path d="M23.575 15.425c-0.175 0.075-0.325 0.375-0.325 0.7 0 0.4-0.225 0.7-0.675 0.925-0.8 0.4-1.225 1.75-0.85 2.75 0.175 0.5 0.6 0.775 1.7 1.125 1.2 0.4 1.475 0.6 1.525 1.125 0.050 0.325-0.1 0.75-0.3 0.925-0.575 0.475-1.725 0.25-2.025-0.425s-0.875-0.725-0.875-0.075c0 0.8 0.3 1.3 0.9 1.525 0.375 0.15 0.6 0.475 0.65 0.925 0.1 0.925 0.8 0.925 0.9 0 0.050-0.375 0.2-0.675 0.325-0.675 0.525 0 1.475-1.25 1.475-1.925 0-1.050-0.625-1.775-1.825-2.1-1.3-0.35-1.675-0.625-1.675-1.325 0-0.775 0.475-1.15 1.425-1.15 0.675 0 0.875 0.125 1.075 0.625 0.275 0.7 0.7 0.825 0.9 0.275 0.2-0.525-0.35-1.4-1.050-1.65-0.4-0.175-0.6-0.425-0.6-0.85 0-0.675-0.2-0.9-0.675-0.725z"></path>
</symbol>
<symbol id="quality" viewBox="0 0 32 32">
<path d="M11.4 1.225c-1.025 1.025-1.475 1.275-2.975 1.675l-1.775 0.475-0.525 1.8c-0.425 1.5-0.725 2.025-1.7 3.025l-1.2 1.225 0.425 1.65c0.325 1.325 0.35 1.9 0.15 2.725-0.3 1.125-0.225 1.45 0.325 1.45 0.175 0 0.45-0.525 0.625-1.275 0.25-1.075 0.25-1.475-0.125-2.775l-0.425-1.525 1.15-1.15c0.925-0.925 1.25-1.525 1.6-2.775l0.425-1.575 1.6-0.45c1.25-0.35 1.875-0.725 2.75-1.575l1.15-1.125 1.575 0.4c1.4 0.35 1.7 0.35 3.125 0l1.55-0.4 1.15 1.125c0.875 0.875 1.475 1.2 2.75 1.55l1.6 0.425 0.425 1.6c0.35 1.275 0.675 1.85 1.6 2.8l1.15 1.15-0.45 1.55c-0.4 1.475-0.4 1.65 0 3.075l0.425 1.525-1.15 1.175c-0.9 0.9-1.225 1.5-1.575 2.75l-0.425 1.6-1.625 0.475c-1.25 0.35-1.9 0.725-2.775 1.6l-1.15 1.125-1.5-0.425c-1.375-0.375-1.6-0.375-3.075 0l-1.575 0.4-1.1-1.075c-0.825-0.8-1.5-1.2-2.775-1.575l-1.675-0.525-0.425-1.575c-0.575-2.175-2.25-3.925-2.85-3-0.075 0.15 0.25 0.675 0.725 1.175 0.6 0.65 1.025 1.425 1.35 2.55 0.45 1.575 0.5 1.625 1.575 1.975 0.625 0.2 1.15 0.375 1.2 0.4 0.050 0.050-0.35 1.7-0.875 3.7s-0.875 3.725-0.775 3.8c0.075 0.1 0.9-0.075 1.825-0.35l1.675-0.5 1.2 1.3c0.875 0.95 1.275 1.225 1.5 1.025 0.15-0.15 0.675-1.8 1.175-3.675 1.2-4.6 1.45-4.6 2.65 0 0.5 1.875 1.025 3.525 1.175 3.675 0.225 0.2 0.625-0.075 1.5-1.025l1.2-1.3 1.55 0.475c0.875 0.275 1.675 0.425 1.825 0.325 0.425-0.275-0.45-3.575-0.95-3.575-0.425 0-0.5 0.9-0.125 1.85 0.125 0.35 0.2 0.65 0.175 0.65-0.050 0-0.7-0.175-1.425-0.4l-1.35-0.4-0.95 1c-0.525 0.575-0.975 0.95-1.050 0.85-0.075-0.15-1.4-4.975-1.4-5.175 0-0.025 0.45 0.075 1 0.2 1 0.275 1.025 0.275 2.25-0.95 0.85-0.85 1.275-1.1 1.35-0.85 0.050 0.2 0.225 0.675 0.35 1.1 0.125 0.4 0.425 0.8 0.675 0.85 0.475 0.075 0.475 0.125-0.050-2.125-0.1-0.425 0.075-0.55 1.1-0.875 1.175-0.375 1.2-0.4 1.7-2.050 0.4-1.3 0.75-1.925 1.725-2.9l1.225-1.225-0.45-1.775c-0.4-1.675-0.4-1.9-0.025-3.45l0.425-1.65-1.25-1.275c-1.025-1.075-1.3-1.55-1.7-3.025l-0.45-1.75-1.75-0.45c-1.475-0.4-1.95-0.675-3.025-1.7l-1.275-1.25-1.65 0.425c-1.6 0.425-1.75 0.425-3.275 0.025-0.875-0.225-1.65-0.425-1.7-0.425s-0.625 0.55-1.3 1.225zM13.5 25.375c0.95-0.15 1.050-0.125 0.925 0.25-0.1 0.225-0.4 1.325-0.7 2.45-0.275 1.125-0.575 2.125-0.625 2.225s-0.55-0.3-1.075-0.85l-0.95-1.025-1.2 0.4c-0.675 0.25-1.3 0.425-1.375 0.425-0.15 0 0.9-4.225 1.4-5.725 0.075-0.25 0.475 0 1.325 0.825 1.175 1.15 1.25 1.2 2.275 1.025z"></path>
<path d="M12.875 3.5c-2.85 0.925-5.325 3.45-6.25 6.375-0.675 2.2-0.45 5.1 0.575 7.2 0.95 1.925 2.775 3.7 4.75 4.625 1.25 0.6 1.725 0.675 4.050 0.675 2.475 0 2.75-0.050 4.3-0.825 5.85-2.875 7.275-10.475 2.875-15.475-0.7-0.8-1.675-1.125-1.675-0.575 0 0.15 0.4 0.7 0.9 1.2 4.075 4.175 2.75 11.5-2.525 14.050-3.050 1.475-6.9 1.025-9.5-1.125l-0.75-0.6 1.675-0.025c1.475 0 1.675-0.050 1.75-0.5 0.075-0.475 0.125-0.475 0.8-0.125 0.525 0.275 1.55 0.375 3.925 0.375 3.125 0 3.225-0.025 3.625-0.625 0.225-0.325 0.325-0.825 0.225-1.1-0.075-0.25-0.050-0.55 0.075-0.625s0.325-0.95 0.4-1.925c0.1-0.975 0.3-2.050 0.45-2.375 0.225-0.45 0.175-0.725-0.15-1.225-0.375-0.575-0.575-0.625-2.15-0.625h-1.75l0.025-1.475c0.025-1.95-0.4-3.225-1.15-3.425-1-0.25-1.55 0.25-1.7 1.55-0.1 0.925-0.325 1.35-1.125 2.15l-1 1-2.825-0.025c-1.55-0.025-2.875-0.1-2.95-0.15-0.25-0.275 0.9-2.275 1.9-3.3 2.2-2.25 6.1-3.2 9.1-2.225 1.3 0.425 1.8 0.375 1.575-0.2-0.2-0.5-2.775-1.15-4.5-1.125-0.8 0-2.15 0.225-2.975 0.475zM17.6 7.525c0.125 0.725 0.125 1.475-0.075 2.2-0.375 1.425-0.225 1.525 2.3 1.525 1.5 0 1.925 0.075 1.925 0.35 0 0.25-0.325 0.4-0.925 0.45-1.275 0.1-1.475 0.875-0.275 1 1.125 0.1 1.125 0.8 0.025 0.9-0.625 0.050-0.825 0.2-0.825 0.575 0 0.35 0.175 0.475 0.625 0.475s0.625 0.125 0.625 0.475c0 0.375-0.2 0.525-0.8 0.575-1.050 0.1-1.2 0.65-0.225 0.85 0.825 0.175 1.025 0.7 0.375 0.95-0.225 0.075-1.425 0.15-2.725 0.15-1.775 0-2.575-0.125-3.475-0.5l-1.15-0.525v-5.45l1.4-1.050c1.5-1.15 2.1-2.050 2.1-3.175 0-1.5 0.775-1.35 1.1 0.225zM12 14.5v3.75h-1.475c-1.35 0-1.55-0.075-1.975-0.7-0.875-1.25-1.325-2.825-1.325-4.575 0-0.95 0.050-1.825 0.15-1.975 0.075-0.125 1.15-0.25 2.4-0.25h2.225v3.75z"></path>
</symbol>
<symbol id="taxes" viewBox="0 0 32 32" fill="#000000" stroke="none">
<path d="M322 1257 c-21 -22 -22 -31 -22 -214 l0 -192 -57 -16 c-83 -24 -103
-46 -103 -111 0 -49 -2 -55 -30 -69 -36 -19 -50 -50 -50 -108 0 -64 9 -85 46
-108 34 -20 34 -22 34 -92 0 -69 -1 -73 -30 -89 -17 -9 -35 -30 -41 -45 -15
-40 -6 -128 15 -152 22 -24 91 -48 165 -57 48 -6 53 -5 49 11 -2 14 -19 22
-69 31 -95 17 -129 37 -129 74 l0 29 34 -14 c86 -36 305 -37 390 -1 l37 15 -3
-32 c-4 -40 -48 -64 -137 -73 -63 -7 -81 -18 -63 -36 15 -15 142 6 193 32 24
13 41 30 45 45 l6 25 279 0 278 0 28 24 c26 23 28 29 31 130 5 117 -1 156 -23
156 -12 0 -15 -21 -15 -123 0 -82 -4 -127 -12 -135 -9 -9 -87 -12 -290 -12
l-278 0 0 38 c0 31 5 40 31 55 17 9 43 17 59 17 60 0 70 74 13 99 -41 18 -41
32 0 51 25 12 33 22 35 47 4 41 -23 57 -89 51 -48 -5 -49 -4 -49 22 0 26 1 27
53 22 60 -5 87 12 87 52 0 26 -29 56 -53 56 -13 0 -17 9 -17 35 0 27 4 35 18
35 44 0 67 63 35 96 -14 13 -29 15 -78 11 -33 -3 -80 -2 -104 4 -23 5 -79 11
-124 12 l-82 2 -3 179 c-2 120 1 183 9 192 7 9 41 14 102 16 74 2 92 6 92 18
0 12 -19 16 -95 18 -90 2 -97 1 -118 -21z m254 -464 c95 -36 57 -73 -95 -95
-90 -12 -212 1 -270 30 -42 21 -43 32 -4 54 68 40 274 46 369 11z m129 -3 c11
-18 -26 -23 -43 -6 -15 15 -14 16 10 16 15 0 30 -5 33 -10z m-450 -117 c68
-19 285 -13 338 10 l37 16 0 -28 c0 -37 -14 -47 -90 -67 -47 -12 -91 -15 -164
-11 -151 7 -206 30 -206 84 0 20 3 24 18 18 9 -4 40 -14 67 -22z m-12 -104
c22 -6 76 -14 121 -18 l81 -8 -106 -2 c-106 -1 -184 14 -223 42 -17 12 -17 15
-2 30 15 15 19 14 53 -8 19 -14 54 -30 76 -36z m460 36 c1 -5 -16 -11 -37 -13
-36 -3 -38 -2 -26 13 14 17 59 17 63 0z m-513 -91 c95 -25 269 -15 353 21 14
6 17 2 17 -24 0 -41 -35 -59 -146 -73 -65 -9 -105 -9 -166 0 -98 14 -142 37
-146 76 -3 24 -1 28 15 22 10 -4 43 -14 73 -22z m515 -54 c3 -6 -1 -13 -9 -16
-21 -8 -66 3 -66 16 0 13 67 13 75 0z m-94 -39 c21 -18 22 -21 9 -35 -61 -61
-373 -59 -434 4 l-21 21 50 -8 c86 -14 224 -7 285 15 72 25 83 26 111 3z
m-380 -96 c93 -33 286 -28 382 10 14 6 17 2 17 -22 0 -24 -7 -33 -36 -47 -55
-26 -176 -38 -268 -26 -102 13 -150 36 -154 73 -4 31 0 32 59 12z m467 -12
c-5 -25 -28 -28 -28 -4 0 12 6 21 16 21 9 0 14 -7 12 -17z m-448 -98 c42 -13
84 -15 183 -12 138 4 157 -4 74 -35 -104 -39 -303 -32 -378 14 l-33 20 24 20
c26 21 37 21 130 -7z"></path>
<path d="M595 1270 c-16 -27 16 -30 284 -30 202 0 280 -3 289 -12 9 -9 12
-108 12 -385 0 -312 2 -373 14 -373 8 0 17 7 20 16 11 28 7 711 -4 740 -20 53
-23 53 -327 54 -177 0 -284 -4 -288 -10z"></path>
<path d="M412 1138 c-16 -16 -16 -190 0 -206 17 -17 669 -17 686 0 16 16 16
190 0 206 -17 17 -669 17 -686 0z m658 -103 l0 -75 -315 0 -315 0 0 75 0 75
315 0 315 0 0 -75z"></path>
<path d="M220 1015 c0 -8 7 -15 15 -15 8 0 15 7 15 15 0 8 -7 15 -15 15 -8 0
-15 -7 -15 -15z"></path>
<path d="M155 961 c-12 -20 6 -31 51 -31 38 0 45 3 42 18 -2 12 -15 18 -45 20
-22 2 -44 -2 -48 -7z"></path>
<path d="M154 899 c-11 -18 12 -31 52 -27 27 2 40 8 42 21 3 14 -4 17 -42 17
-25 0 -48 -5 -52 -11z"></path>
<path d="M786 824 c-40 -40 -5 -94 61 -94 63 0 96 55 57 94 -21 21 -97 21
-118 0z m99 -39 c0 -5 -17 -11 -37 -13 -30 -3 -38 0 -38 13 0 13 8 16 38 13
20 -2 37 -7 37 -13z"></path>
<path d="M966 824 c-40 -40 -5 -94 61 -94 63 0 96 55 57 94 -21 21 -97 21
-118 0z m99 -39 c0 -5 -17 -11 -37 -13 -30 -3 -38 0 -38 13 0 13 8 16 38 13
20 -2 37 -7 37 -13z"></path>
<path d="M787 642 c-40 -44 -10 -92 58 -92 49 0 75 19 75 54 0 13 -8 30 -18
39 -26 23 -94 22 -115 -1z m98 -37 c0 -5 -17 -11 -37 -13 -30 -3 -38 0 -38 13
0 13 8 16 38 13 20 -2 37 -7 37 -13z"></path>
<path d="M967 642 c-40 -44 -10 -92 58 -92 49 0 75 19 75 54 0 13 -8 30 -18
39 -26 23 -94 22 -115 -1z m98 -37 c0 -5 -17 -11 -37 -13 -30 -3 -38 0 -38 13
0 13 8 16 38 13 20 -2 37 -7 37 -13z"></path>
<path d="M786 494 c-9 -8 -16 -26 -16 -39 0 -48 80 -73 128 -39 28 20 30 69 3
84 -30 15 -97 12 -115 -6z m99 -39 c0 -5 -17 -11 -37 -13 -30 -3 -38 0 -38 13
0 13 8 16 38 13 20 -2 37 -7 37 -13z"></path>
<path d="M966 494 c-9 -8 -16 -26 -16 -39 0 -48 80 -73 128 -39 28 20 30 69 3
84 -30 15 -97 12 -115 -6z m99 -39 c0 -5 -17 -11 -37 -13 -30 -3 -38 0 -38 13
0 13 8 16 38 13 20 -2 37 -7 37 -13z"></path>
<path d="M800 358 c-28 -15 -39 -60 -19 -84 14 -17 110 -19 127 -2 16 16 15
63 -2 77 -22 19 -78 23 -106 9z m78 -45 c-2 -12 -13 -18 -33 -18 -20 0 -31 6
-33 18 -3 14 4 17 33 17 29 0 36 -3 33 -17z"></path>
<path d="M980 358 c-28 -15 -39 -60 -19 -84 14 -17 110 -19 127 -2 16 16 15
63 -2 77 -22 19 -78 23 -106 9z m78 -45 c-2 -12 -13 -18 -33 -18 -20 0 -31 6
-33 18 -3 14 4 17 33 17 29 0 36 -3 33 -17z"></path>
</symbol>
</defs>
</svg>
